<svg xmlns="http://www.w3.org/2000/svg" x="0px" y="0px"
	 viewBox="0 0 100 100" enable-background="new 0 0 100 100" xml:space="preserve">
<circle fill="none" stroke="#FFFFFF" stroke-width="8" stroke-miterlimit="10" cx="50" cy="50" r="42.5"/>
<path fill="#FFFFFF" d="M72.1,60.7c-5.8-0.9-8.5-6.9-8.7-7.5v-0.1c-0.3-0.6-0.4-1-0.3-1.5c0.3-0.7,1.6-1.1,2.4-1.4
	c0.3-0.1,0.4-0.2,0.6-0.2c1.7-0.7,2.5-1.5,2.5-2.5c0-0.8-0.6-1.5-1.5-1.9c-0.3-0.2-0.7-0.2-1-0.2c-0.3,0-0.6,0-1,0.2
	c-0.7,0.3-1.4,0.5-1.8,0.5c-0.2,0-0.3-0.1-0.5-0.1c0-0.3,0-0.5,0.1-0.8v-0.2c0.2-3.2,0.4-7-0.6-9.3c-3.1-6.9-9.6-7.5-11.6-7.5h-0.9
	c-2,0-8.5,0.5-11.6,7.5c-1,2.3-0.8,6.3-0.6,9.3c0,0.3,0,0.6,0.1,0.9c-0.2,0.1-0.3,0.1-0.6,0.1c-0.5,0-1.2-0.2-2-0.5
	c-1.1-0.5-3.1,0.2-3.3,1.6c-0.2,0.8,0.2,1.9,2.5,2.7c0.2,0.1,0.4,0.2,0.7,0.3c0.8,0.3,2.1,0.7,2.4,1.4c0.2,0.3,0.1,0.9-0.3,1.5
	c-0.1,0.3-2.8,6.5-8.9,7.5c-0.6,0.1-1.1,0.7-1,1.3c0,0.2,0.1,0.3,0.1,0.5c0.5,1.2,2.4,2,6.1,2.6c0.1,0.2,0.2,0.6,0.3,0.9
	c0.1,0.3,0.2,0.7,0.3,1.1c0.1,0.3,0.4,1,1.4,1c0.3,0,0.7-0.1,1.1-0.2c0.6-0.1,1.4-0.3,2.4-0.3c0.5,0,1.1,0.1,1.7,0.2
	c1.1,0.2,2.1,0.9,3.2,1.6c1.6,1.1,3.1,2.1,6.1,2.1c0.1,0,0.2,0,0.3,0s0.3,0,0.3,0c2.6,0,4.9-0.7,6.8-2.1c1-0.8,2.1-1.5,3.2-1.6
	c0.6-0.1,1.1-0.2,1.7-0.2c0.9,0,1.7,0.1,2.4,0.3c0.4,0.1,0.8,0.2,1.1,0.2c0.7,0,1.1-0.3,1.4-1c0.1-0.3,0.2-0.7,0.3-1.1
	c0-0.2,0.2-0.7,0.3-0.9c3.6-0.6,5.4-1.4,5.9-2.6c0.1-0.2,0.1-0.3,0.2-0.5C73.1,61.4,72.7,60.9,72.1,60.7z"/>
</svg>
