<svg xmlns="http://www.w3.org/2000/svg" x="0px" y="0px"
	 viewBox="0 0 100 100" enable-background="new 0 0 100 100" xml:space="preserve">
<circle fill="none" stroke="#FFFFFF" stroke-width="8" stroke-miterlimit="10" cx="50" cy="50" r="42.5"/>
<path fill="#FFFFFF" d="M70.9,42.9c0,0.4,0,0.8,0,1.2c0,12.2-9.2,26.2-26.2,26.2c-5.2,0-10.1-1.5-14.1-4.1c0.8,0.1,1.5,0.1,2.3,0.1
	c4.3,0,8.3-1.5,11.4-3.9c-4-0.1-7.4-2.7-8.6-6.4c0.6,0.1,1.1,0.2,1.7,0.2c0.8,0,1.7-0.1,2.4-0.3c-4.2-0.9-7.4-4.5-7.4-9.1v-0.1
	c1.2,0.7,2.6,1.1,4.2,1.1c-2.4-1.7-4.1-4.4-4.1-7.7c0-1.7,0.4-3.3,1.2-4.6c4.5,5.6,11.3,9.2,19,9.7c-0.2-0.7-0.3-1.4-0.3-2.1
	c0-5.1,4.1-9.2,9.2-9.2c2.6,0,5.1,1.1,6.7,2.9c2.1-0.4,4.1-1.1,5.8-2.3c-0.7,2.2-2.2,3.9-4,5.1c1.8-0.2,3.7-0.7,5.3-1.4
	C74.2,39.9,72.7,41.6,70.9,42.9z"/>
</svg>
